<svg width="12" height="12" viewBox="0 0 12 12" fill="none" xmlns="http://www.w3.org/2000/svg">
<path d="M4.50007 8.085L2.76507 6.35C2.67158 6.25651 2.54479 6.20399 2.41257 6.20399C2.28036 6.20399 2.15356 6.25651 2.06007 6.35C1.96658 6.44349 1.91406 6.57029 1.91406 6.7025C1.91406 6.76797 1.92696 6.83279 1.95201 6.89327C1.97706 6.95375 2.01378 7.00871 2.06007 7.055L4.15007 9.145C4.34507 9.34 4.66007 9.34 4.85507 9.145L10.1451 3.855C10.2386 3.76151 10.2911 3.63471 10.2911 3.5025C10.2911 3.37029 10.2386 3.24349 10.1451 3.15C10.0516 3.05651 9.92479 3.00399 9.79257 3.00399C9.66036 3.00399 9.53356 3.05651 9.44007 3.15L4.50007 8.085Z" fill="#B12200"/></svg>
