<svg width="25" height="25" viewBox="0 0 25 25" fill="none" xmlns="http://www.w3.org/2000/svg">
<path fill-rule="evenodd" clip-rule="evenodd" d="M17.8115 8.84684C18.1891 9.1394 18.258 9.68264 17.9654 10.0602L14.5879 14.419C14.4469 14.6011 14.239 14.7193 14.0104 14.7476C13.7819 14.7758 13.5515 14.7118 13.3703 14.5696L10.1204 12.0184L7.20162 15.8109C6.91031 16.1894 6.36731 16.2601 5.98879 15.9688C5.61027 15.6775 5.53957 15.1345 5.83088 14.7559L9.28218 10.2714C9.42295 10.0885 9.63099 9.96948 9.86001 9.94078C10.089 9.91208 10.32 9.97611 10.5016 10.1186L13.7538 12.6716L16.5982 9.00075C16.8907 8.62319 17.434 8.55429 17.8115 8.84684Z" fill="#BDBDBD" stroke="#BDBDBD" stroke-width="0.5" stroke-linecap="round" stroke-linejoin="round"/>
<path fill-rule="evenodd" clip-rule="evenodd" d="M21.2188 1.72975C20.4719 1.72975 19.8674 2.33423 19.8674 3.08121C19.8674 3.82732 20.4722 4.43267 21.2188 4.43267C21.9655 4.43267 22.5703 3.82732 22.5703 3.08121C22.5703 2.33423 21.9658 1.72975 21.2188 1.72975ZM18.1377 3.08121C18.1377 1.37895 19.5166 6.10352e-05 21.2188 6.10352e-05C22.9211 6.10352e-05 24.3 1.37895 24.3 3.08121C24.3 4.78202 22.9214 6.16235 21.2188 6.16235C19.5163 6.16235 18.1377 4.78202 18.1377 3.08121Z" fill="#BDBDBD"/>
<path fill-rule="evenodd" clip-rule="evenodd" d="M4.30987 4.62054C2.89963 6.03077 2.22968 8.39026 2.22968 12.3419C2.22968 16.2942 2.89964 18.6536 4.30984 20.0637C5.72006 21.4738 8.07952 22.1434 12.0312 22.1434C15.9836 22.1434 18.343 21.4737 19.753 20.0637C21.1631 18.6536 21.8328 16.2942 21.8328 12.3419C21.8328 11.0669 21.7639 9.949 21.6185 8.97045C21.5483 8.498 21.8743 8.05808 22.3468 7.98788C22.8192 7.91767 23.2592 8.24375 23.3294 8.7162C23.4907 9.80174 23.5625 11.0085 23.5625 12.3419C23.5625 16.3899 22.8992 19.3637 20.9761 21.2868C19.053 23.2098 16.0793 23.8731 12.0312 23.8731C7.98373 23.8731 5.01 23.2098 3.08682 21.2868C1.16363 19.3638 0.5 16.39 0.5 12.3419C0.5 8.29432 1.16364 5.32062 3.0868 3.39746C5.00995 1.47431 7.98366 0.810669 12.0312 0.810669C13.3401 0.810669 14.5261 0.880121 15.5952 1.03527C16.0679 1.10387 16.3955 1.54267 16.3269 2.01535C16.2583 2.48804 15.8195 2.81562 15.3468 2.74702C14.3817 2.60697 13.2823 2.54035 12.0312 2.54035C8.07959 2.54035 5.72011 3.2103 4.30987 4.62054Z" fill="#BDBDBD" stroke="#BDBDBD" stroke-width="0.5" stroke-linecap="round" stroke-linejoin="round"/>
</svg>