<svg width="33" height="32" viewBox="0 0 33 32" fill="none" xmlns="http://www.w3.org/2000/svg">
<path fill-rule="evenodd" clip-rule="evenodd" d="M19.6533 16.3573C19.6533 15.7459 20.1489 15.2503 20.7603 15.2503H20.7703C21.3816 15.2503 21.8773 15.7459 21.8773 16.3573C21.8773 16.9687 21.3816 17.4643 20.7703 17.4643H20.7603C20.1489 17.4643 19.6533 16.9687 19.6533 16.3573Z" fill="#BDBDBD" stroke="#BDBDBD" stroke-width="0.5" stroke-linecap="round" stroke-linejoin="round"/>
<path fill-rule="evenodd" clip-rule="evenodd" d="M15.2158 16.3573C15.2158 15.7459 15.7114 15.2503 16.3228 15.2503H16.3328C16.9441 15.2503 17.4398 15.7459 17.4398 16.3573C17.4398 16.9687 16.9441 17.4643 16.3328 17.4643H16.3228C15.7114 17.4643 15.2158 16.9687 15.2158 16.3573Z" fill="#BDBDBD" stroke="#BDBDBD" stroke-width="0.5" stroke-linecap="round" stroke-linejoin="round"/>
<path fill-rule="evenodd" clip-rule="evenodd" d="M10.7783 16.3573C10.7783 15.7459 11.2739 15.2503 11.8853 15.2503H11.8953C12.5066 15.2503 13.0023 15.7459 13.0023 16.3573C13.0023 16.9687 12.5066 17.4643 11.8953 17.4643H11.8853C11.2739 17.4643 10.7783 16.9687 10.7783 16.3573Z" fill="#BDBDBD" stroke="#BDBDBD" stroke-width="0.5" stroke-linecap="round" stroke-linejoin="round"/>
<path fill-rule="evenodd" clip-rule="evenodd" d="M23.6403 8.65738C19.6459 4.66143 13.1553 4.66143 9.16096 8.65738L9.16078 8.65755C6.03257 11.7852 5.35323 16.4213 7.10897 20.2155C7.11486 20.2282 7.12044 20.2411 7.12568 20.2541C7.22771 20.5076 7.22542 20.7949 7.22082 20.9574C7.21506 21.1614 7.19249 21.3964 7.16463 21.6355C7.1383 21.8616 7.10485 22.1106 7.07084 22.3638L7.06378 22.4164C7.02695 22.6908 6.98946 22.9724 6.95673 23.2545C6.89036 23.8265 6.84867 24.3607 6.86722 24.788C6.87646 25.0009 6.89974 25.1587 6.92946 25.2669C6.93948 25.3033 6.94865 25.3284 6.95541 25.3445C6.97158 25.3513 6.99667 25.3605 7.03311 25.3705C7.1413 25.4002 7.29911 25.4234 7.51206 25.4326C7.93939 25.4511 8.47355 25.4095 9.04552 25.3432C9.32753 25.3105 9.60913 25.273 9.88346 25.2362L9.93574 25.2292C10.189 25.1952 10.4382 25.1618 10.6643 25.1355C10.9034 25.1077 11.1384 25.0851 11.3424 25.0794C11.5049 25.0748 11.7921 25.0726 12.0455 25.1746C12.0585 25.1799 12.0713 25.1854 12.0839 25.1912C15.8789 26.9463 20.5132 26.2678 23.6402 23.1393L23.6403 23.1392C27.6353 19.1437 27.6432 12.6598 23.6404 8.65753L23.6403 8.65738ZM24.8145 7.48333C20.1716 2.83876 12.6294 2.83881 7.98659 7.48348C4.37335 11.0962 3.57494 16.4367 5.56124 20.8237C5.56184 20.8431 5.56211 20.8715 5.56101 20.9104C5.55735 21.0399 5.54171 21.2168 5.51531 21.4434C5.49073 21.6543 5.45915 21.8896 5.4245 22.1476L5.41806 22.1955C5.38132 22.4693 5.34197 22.7645 5.30732 23.0631C5.23894 23.6524 5.18377 24.2948 5.2083 24.86C5.2206 25.1433 5.25384 25.4358 5.32837 25.7069C5.4012 25.9719 5.53004 26.2779 5.77617 26.524L5.77656 26.5244C6.02276 26.7703 6.32867 26.899 6.59352 26.9717C6.8646 27.0461 7.15697 27.0793 7.44022 27.0916C8.00529 27.116 8.64757 27.0609 9.23676 26.9926C9.53531 26.958 9.83046 26.9187 10.1041 26.882L10.1517 26.8756C10.4098 26.841 10.6451 26.8094 10.8562 26.7848C11.0827 26.7585 11.2596 26.7429 11.389 26.7392C11.428 26.7381 11.4564 26.7384 11.4758 26.739C15.8632 28.7244 21.2022 27.9272 24.8146 24.3132C29.4569 19.6703 29.4668 12.135 24.8145 7.48333Z" fill="#BDBDBD" stroke="#BDBDBD" stroke-width="0.5" stroke-linecap="round" stroke-linejoin="round"/>
</svg>
