<svg width="33" height="32" viewBox="0 0 33 32" fill="none" xmlns="http://www.w3.org/2000/svg">
<path fill-rule="evenodd" clip-rule="evenodd" d="M12.1895 20.1378C12.1895 19.6609 12.576 19.2743 13.0529 19.2743H19.7478C20.2247 19.2743 20.6113 19.6609 20.6113 20.1378C20.6113 20.6147 20.2247 21.0013 19.7478 21.0013H13.0529C12.576 21.0013 12.1895 20.6147 12.1895 20.1378Z" fill="#E12B00"/>
<path fill-rule="evenodd" clip-rule="evenodd" d="M10.4406 8.44302C9.96566 8.88297 9.53919 9.26111 9.16009 9.59525C9.10658 9.64241 9.05419 9.68855 9.00285 9.73376C8.68174 10.0165 8.40209 10.2628 8.15091 10.4946C7.56913 11.0317 7.20165 11.4372 6.94176 11.8906C6.42079 12.7997 6.22697 14.0745 6.22697 17.3488C6.22697 19.716 6.36866 21.4154 6.68883 22.6475C7.00314 23.8571 7.47168 24.5502 8.09236 24.9957C8.74059 25.461 9.666 25.7381 11.0596 25.8818C12.4517 26.0253 14.1883 26.0263 16.4 26.0263C18.6117 26.0263 20.3483 26.0253 21.7404 25.8818C23.134 25.7381 24.0594 25.461 24.7076 24.9957C25.3283 24.5502 25.7969 23.8571 26.1112 22.6475C26.4313 21.4154 26.573 19.716 26.573 17.3488C26.573 14.0744 26.3795 12.7996 25.8587 11.8905C25.599 11.437 25.2316 11.0316 24.65 10.4946C24.3986 10.2625 24.1187 10.016 23.7973 9.73291C23.7462 9.68797 23.6942 9.6421 23.641 9.59523C23.2619 9.26109 22.8355 8.88294 22.3605 8.44298C22.0793 8.21593 21.788 7.97026 21.4862 7.71565C20.8286 7.16101 20.1207 6.56394 19.357 6.02444C18.2231 5.22339 17.1961 4.72697 16.3678 4.72697C15.5421 4.72697 14.5292 5.22344 13.4102 6.02569C12.6799 6.54925 12.0119 7.11825 11.3842 7.65289C11.0599 7.92911 10.7464 8.19615 10.4406 8.44302ZM12.4039 4.62217C13.5556 3.79646 14.9564 3 16.3678 3C17.7753 3 19.1874 3.79018 20.3535 4.61392C21.1778 5.19624 21.9932 5.88346 22.6759 6.45873C22.967 6.70412 23.234 6.92914 23.4673 7.11696C23.4829 7.12955 23.4981 7.14269 23.5128 7.15634C23.9803 7.58986 24.4009 7.96298 24.7829 8.29971C24.8347 8.34538 24.886 8.39052 24.9367 8.43516C25.2566 8.71689 25.5539 8.97867 25.8215 9.22571C26.4424 9.79894 26.9649 10.3472 27.3573 11.0321C28.1407 12.3997 28.3 14.1403 28.3 17.3488C28.3 19.7521 28.1598 21.6306 27.7826 23.0819C27.3996 24.5558 26.7555 25.6516 25.7147 26.3987C24.7014 27.126 23.4165 27.4451 21.9175 27.5997C20.427 27.7533 18.603 27.7533 16.4428 27.7533H16.3572C14.197 27.7533 12.373 27.7533 10.8825 27.5997C9.38347 27.4451 8.09858 27.126 7.08531 26.3987C6.0445 25.6516 5.40037 24.5558 5.01737 23.0819C4.64024 21.6306 4.5 19.7521 4.5 17.3488C4.5 14.1402 4.65963 12.3996 5.44339 11.032C5.83587 10.3471 6.35857 9.79886 6.97953 9.22566C7.24684 8.9789 7.5438 8.71743 7.86335 8.43607C7.91439 8.39112 7.96602 8.34567 8.01819 8.29968C8.40021 7.96297 8.82088 7.58985 9.28834 7.15634C9.3031 7.14264 9.31835 7.12947 9.33404 7.11684C9.57826 6.92025 9.86328 6.67792 10.1759 6.41212C10.8367 5.85027 11.6209 5.18353 12.4039 4.62217Z" fill="#E12B00" stroke="#E12B00" stroke-width="0.5" stroke-linecap="round" stroke-linejoin="round"/>
</svg>
