<svg width="39" height="33" viewBox="0 0 39 33" fill="none" xmlns="http://www.w3.org/2000/svg">
<path d="M6.68288 3.9507H10.8484L12.4887 5.21472V13.2616L10.8485 14.5245H5.6206V14.9894H11.0986L13.0924 13.4542V5.02222L11.0986 3.4859H6.4328L3.20084 5.97436L3.62768 6.30295L6.68288 3.9507ZM6.21419 3.07921H11.317L13.6205 4.85362V13.6228L11.3171 15.396H5.62052V15.8608H11.567L14.2242 13.8153V4.66124L11.5671 2.61447H5.9641L2.40063 5.35823L2.82747 5.68688L6.21419 3.07921ZM11.7856 16.2675H5.6206V16.7323H12.0357L15.3561 14.1764V4.30002L12.0357 1.74287H5.49562L1.60057 4.742L2.02734 5.07065L5.74571 2.20772H11.7857L14.7525 4.49247V13.9838L11.7856 16.2675ZM16.4879 14.5375V3.93898L12.5044 0.87149H5.02693L0.80021 4.12598L1.22705 4.45463L5.27702 1.33629H12.2543L15.8842 4.13142V14.3449L12.2543 17.1389H5.6206V17.6037H12.5043L16.4879 14.5375ZM15.5382 16.5007L17.6198 14.8986V3.57793L12.9729 0H4.55838L0 3.50986L0.426769 3.83851L4.80847 0.464798H12.7227L17.0161 3.77049V14.7061L12.7228 18.0105H5.62052V18.4753H10.8471L12.4891 19.7396V27.7862L10.8489 29.0491H6.68325L3.62952 26.698L3.20275 27.0267L6.43316 29.514H11.099L13.0928 27.9788V19.5471L11.7008 18.4753H12.4483L13.6209 19.3782V28.1477L11.3168 29.9206H6.21404L2.82828 27.3139L2.40151 27.6425L5.96381 30.3854H11.5667L14.2245 28.3402V19.1856L13.1374 18.3486L13.5105 18.0614L14.7527 19.0169V28.5078L11.7859 30.7921H5.74601L2.02837 27.9298L1.60152 28.2584L5.49592 31.2569H12.036L15.3563 28.7004V18.8242L13.9374 17.7327L14.3105 17.4455L15.8846 18.6566V28.8692L12.254 31.6635H5.27665L1.22698 28.5466L0.80021 28.8754L5.02671 32.1283H12.5039L16.4883 29.0618V18.4639L14.7374 17.117L15.1112 16.8293L17.0165 18.2952V29.2306L12.7233 32.535H4.80891L0.427284 29.1625L0.000367777 29.4912L4.55897 32.9998H12.9733L17.6202 29.4231V18.1027L15.5382 16.5007ZM38.9996 3.57754L34.3534 0.000226537H21.2921L21.2922 32.9999H21.8959L21.8958 0.465025H34.1033L38.396 3.77009V14.7056L34.1033 18.0107H26.4232V17.604H33.8847L37.8678 14.5372V3.93852L33.8847 0.871716H22.4241L22.4241 33H23.0278L23.0277 1.33651H33.6346L37.2641 4.13114V14.3446L33.6346 17.1392H26.4232V16.7325H33.4158L36.736 14.1762V4.2994L33.4158 1.74309H23.5559L23.556 32.9998H24.1597L24.1595 2.20783H33.1657L36.1322 4.49196V13.9835L33.1657 16.2676H26.4232V15.8609H32.9469L35.604 13.8151V4.66039L32.9469 2.61453H24.6877L24.6878 32.9998H25.2915L25.2914 3.07932H32.6968L35.0004 4.85289V13.6225L32.6968 15.3961H26.4233V14.9894H32.4782L34.4723 13.454V5.02126L32.4782 3.4859H25.8197L25.8198 32.9997H26.4235L26.4233 18.4752H32.2284L33.8687 19.7383V32.9997H34.4724V19.5457L33.082 18.4752H33.8291L35.0006 19.3773V32.9997H35.6042V19.1847L34.5181 18.3486L34.8917 18.0609L36.1324 19.0163V32.9997H36.7362V18.8237L35.3185 17.7323L35.6921 17.4447L37.2644 18.6553V32.9997H37.8681V18.4627L36.1189 17.116L36.4924 16.8285L38.3963 18.2943V32.9997H39V18.1017L36.9194 16.4999L39 14.8979L38.9996 3.57754ZM26.4231 3.95093H32.228L33.8685 5.21404V13.2617L32.228 14.5248H26.4231V3.95093Z" fill="#D4C0A4"/></svg>
